<svg id="Calque_1" data-name="Calque 1" xmlns="http://www.w3.org/2000/svg" viewBox="0 0 589.66 392.02"><defs><style>.cls-1,.cls-2,.cls-5,.cls-6,.cls-7{fill:none;}.cls-2,.cls-7{stroke:#191e4e;}.cls-2,.cls-5,.cls-6,.cls-7{stroke-miterlimit:10;}.cls-2{stroke-width:30px;}.cls-3{fill:#fff;fill-rule:evenodd;}.cls-4{fill:#2bce8b;}.cls-5{stroke:#ee01ed;stroke-width:21px;}.cls-6{stroke:#2bce8b;}.cls-6,.cls-7{stroke-width:32px;}.cls-8{fill:#191e4e;}</style></defs><title>ts-logo-small</title><rect class="cls-1" x="192.81" y="16" width="354.32" height="354.32"/><rect class="cls-1" x="16" y="16" width="192.14" height="353.8"/><line class="cls-2" x1="65.19" y1="82.22" x2="161.68" y2="82.22"/><line class="cls-2" x1="65.98" y1="147.11" x2="162.47" y2="147.11"/><polygon class="cls-3" points="102.81 243.74 115.99 251.35 102.81 258.97 102.81 243.74"/><polygon class="cls-4" points="83.89 210.97 83.89 291.74 153.83 251.36 83.89 210.97"/><path class="cls-5" d="M1029.6,508.4" transform="translate(-443.44 -312.51)"/><polyline class="cls-6" points="570.58 335.22 571.02 376 216.73 375.66 24.8 375.48 24.8 355.21"/><polyline class="cls-7" points="561.84 329.51 562.27 370.32 207.95 369.98 16 369.8 16 16 208.14 16 562.27 16 562.27 59.42"/><line class="cls-7" x1="208.14" y1="16" x2="207.95" y2="369.98"/><path class="cls-4" d="M862.09,416.18v41.4H810.26V625.5H760.57V457.58H708.43v-41.4Z" transform="translate(-443.44 -312.51)"/><path class="cls-4" d="M1027.43,462.18l-41.71,14q-8.41-24.84-35.65-24.85-29.07,0-29.07,18.87a17,17,0,0,0,5.44,12.73q5.43,5.21,24.58,9.05,32,6.46,46.86,13.05t25,21.24A56,56,0,0,1,1033.11,559q0,28.37-21.84,49.07t-64.73,20.69q-32.17,0-54.78-14.64T862,570.6l45.4-10.27q7.65,29.29,42.54,29.29,16.85,0,25.1-6.52t8.27-15.56a16.25,16.25,0,0,0-7.51-14.27q-7.5-5.06-28.94-9.51-40-8.28-57-22.62t-17-41.94q0-27.92,20.3-47.08T948.23,413Q1009.81,413,1027.43,462.18Z" transform="translate(-443.44 -312.51)"/><path class="cls-8" d="M852.63,410.5v41.41H800.8V619.83H751.11V451.91H699V410.5Z" transform="translate(-443.44 -312.51)"/><path class="cls-8" d="M1018,456.51l-41.71,13.95q-8.41-24.84-35.65-24.84-29.07,0-29.07,18.86A17,17,0,0,0,917,477.21q5.43,5.22,24.58,9.06,32,6.45,46.86,13.05t25,21.23a56,56,0,0,1,10.19,32.74q0,28.37-21.84,49.06t-64.73,20.7q-32.18,0-54.78-14.65t-29.8-43.47l45.4-10.28q7.65,29.29,42.54,29.29,16.84,0,25.1-6.51t8.27-15.57a16.23,16.23,0,0,0-7.51-14.26q-7.5-5.05-28.94-9.51-40-8.3-57-22.63t-17-41.94q0-27.9,20.3-47.07t55.08-19.17Q1000.35,407.28,1018,456.51Z" transform="translate(-443.44 -312.51)"/></svg>