<svg id="Calque_1" data-name="Calque 1" xmlns="http://www.w3.org/2000/svg" viewBox="0 0 2336.79 392.02"><defs><style>.cls-1,.cls-2,.cls-5,.cls-6,.cls-7{fill:none;}.cls-2,.cls-7{stroke:#191e4e;}.cls-2,.cls-5,.cls-6,.cls-7{stroke-miterlimit:10;}.cls-2{stroke-width:30px;}.cls-3{fill:#fff;fill-rule:evenodd;}.cls-4{fill:#2bce8b;}.cls-5{stroke:#ee01ed;stroke-width:21px;}.cls-6{stroke:#2bce8b;}.cls-6,.cls-7{stroke-width:32px;}.cls-8{fill:#191e4e;}</style></defs><title>ts-logo-full</title><rect class="cls-1" x="192.81" y="16" width="354.32" height="354.32"/><rect class="cls-1" x="16" y="16" width="192.14" height="353.8"/><line class="cls-2" x1="65.19" y1="82.22" x2="161.68" y2="82.22"/><line class="cls-2" x1="65.98" y1="147.11" x2="162.47" y2="147.11"/><polygon class="cls-3" points="102.81 243.74 115.99 251.35 102.81 258.97 102.81 243.74"/><polygon class="cls-4" points="83.89 210.97 83.89 291.74 153.83 251.36 83.89 210.97"/><path class="cls-5" d="M397.83,476.49" transform="translate(188.32 -280.6)"/><polyline class="cls-6" points="570.58 335.22 571.02 376 216.73 375.66 24.8 375.48 24.8 355.21"/><polyline class="cls-7" points="561.84 329.51 562.27 370.32 207.95 369.98 16 369.8 16 16 208.14 16 562.27 16 562.27 59.42"/><line class="cls-7" x1="208.14" y1="16" x2="207.95" y2="369.98"/><path class="cls-4" d="M655.16,381.89v41.4H604.41V591.21H555.75V423.29H504.7v-41.4Z" transform="translate(188.32 -280.6)"/><path class="cls-4" d="M792.68,521.44h-97.6q-.17,4.14-.16,7.21,0,16.56,8.64,25a28.5,28.5,0,0,0,20.65,8.44q22.37,0,26.88-24.39l40.54,3.07q-17,53.68-68.92,53.67-22.68,0-38.52-9.27t-26.13-27.07q-10.29-17.79-10.29-42.63,0-37,20.65-59.66t53.08-22.69q29.29,0,50.23,21.08T792.68,521.44Zm-97.76-26.53h53.91Q746.73,463,723.16,463,697.93,463,694.92,494.91Z" transform="translate(188.32 -280.6)"/><path class="cls-4" d="M946.57,533.09q-2.57,27.46-21.25,44.4T877,594.43q-32.13,0-52.33-21.7t-20.2-58q0-36.35,20.65-59t55.19-22.62q27.78,0,46,17t20.2,42.63l-41.75,2.46q-2.1-27.92-23.72-27.92-26.58,0-26.58,44.48,0,29.6,7.43,37.57a23.81,23.81,0,0,0,18.1,8q20.72,0,24.77-26.83Z" transform="translate(188.32 -280.6)"/><path class="cls-4" d="M1006.3,381.89v75.49q12.32-24.27,41-24.27,15.32,0,26.2,6.82a37.47,37.47,0,0,1,15.32,17.56q4.42,10.74,4.43,31.44V591.21H1048.5V503.85q0-15.66-1.2-21.5a17.76,17.76,0,0,0-5.46-9.75,15.22,15.22,0,0,0-10.7-3.92q-8.39,0-16.61,6.69t-8.23,28.48v87.36H962.91V381.89Z" transform="translate(188.32 -280.6)"/><path class="cls-4" d="M1254.34,591.21h-44.75v-87q0-15.78-1.2-21.62a17.57,17.57,0,0,0-5.85-9.89,17.19,17.19,0,0,0-11.72-4.07q-23.57,0-23.57,35.58v87H1122.5V436.33h41.59v26.22q10.37-18.71,20.43-24.08a45.6,45.6,0,0,1,21.77-5.36q21.63,0,34.84,11.88t13.21,46.7Z" transform="translate(188.32 -280.6)"/><path class="cls-4" d="M1346.44,433.11q34.65,0,54.08,23.15t19.42,58q0,34.35-20.17,57.28t-53.63,22.92q-32.4,0-51.83-22.69t-19.42-58.28q0-24.68,8.77-41.94a73.87,73.87,0,0,1,24.08-27.83Q1323,433.1,1346.44,433.11Zm1.2,29.9q-12.72,0-19.17,10T1322,513q0,27.46,6.14,39.42t19.16,12q11.39,0,18.41-10.2t7-38.88q0-30.51-6.21-41.4T1347.64,463Z" transform="translate(188.32 -280.6)"/><path class="cls-4" d="M1597.43,427.89l-40.84,14Q1548.36,417,1521.68,417q-28.46,0-28.46,18.87a17.11,17.11,0,0,0,5.33,12.73q5.31,5.2,24.06,9,31.34,6.47,45.89,13.05T1593,491.94a56.81,56.81,0,0,1,10,32.73q0,28.37-21.38,49.07t-63.39,20.69q-31.5,0-53.63-14.64t-29.18-43.48L1479.86,526q7.48,29.3,41.66,29.29,16.49,0,24.57-6.52t8.1-15.56a16.33,16.33,0,0,0-7.35-14.27q-7.35-5.06-28.34-9.51-39.13-8.28-55.79-22.62t-16.64-41.94q0-27.92,19.88-47.08t53.93-19.16Q1580.18,378.67,1597.43,427.89Z" transform="translate(188.32 -280.6)"/><path class="cls-4" d="M1764.56,521.44H1667q-.15,4.14-.15,7.21,0,16.56,8.63,25a28.5,28.5,0,0,0,20.65,8.44q22.38,0,26.88-24.39l40.54,3.07q-17,53.68-68.92,53.67-22.68,0-38.52-9.27t-26.13-27.07q-10.28-17.79-10.28-42.63,0-37,20.65-59.66t53.08-22.69q29.28,0,50.23,21.08T1764.56,521.44Zm-97.75-26.53h53.91Q1718.61,463,1695,463,1669.81,463,1666.81,494.91Z" transform="translate(188.32 -280.6)"/><path class="cls-4" d="M1828.51,591.21h-43.4V436.33h41v28.83q9.47-32.21,32.74-32.21c2.2,0,4.9.16,8.11.46V478.5q-13.68,0-21.25,4.29t-12.39,15.41q-4.8,11.13-4.8,30Z" transform="translate(188.32 -280.6)"/><path class="cls-4" d="M2016.81,436.33l-52,154.88H1930l-52.12-154.88h46.51l29.24,98.14,29.93-98.14Z" transform="translate(188.32 -280.6)"/><path class="cls-4" d="M2142,473.75l-32.58,8.89q-5.71-21-29.58-21-22.53,0-22.53,14a10.76,10.76,0,0,0,4.13,8.84q4.13,3.3,21.55,5.58,26,3.5,38.44,8.1a39.72,39.72,0,0,1,19.75,15.49q7.28,10.89,7.28,26.83,0,23.92-17.79,39t-49.78,15q-58,0-69.23-45.85l37.69-5.67q4.65,20.85,33.64,20.85,11.11,0,18.77-4.07t7.66-11q0-10.76-17-12.74-45.95-5.78-60.44-18t-14.49-34q0-22.08,16.82-36.5t47.15-14.41q24,0,38.44,9.66T2142,473.75Z" transform="translate(188.32 -280.6)"/><path class="cls-8" d="M645.7,376.21v41.41H595V585.54H546.29V417.62h-51V376.21Z" transform="translate(188.32 -280.6)"/><path class="cls-8" d="M783.22,515.76h-97.6c-.11,2.76-.15,5.17-.15,7.21q0,16.56,8.63,25a28.53,28.53,0,0,0,20.65,8.43q22.37,0,26.88-24.38l40.54,3.07q-17,53.67-68.92,53.67-22.68,0-38.52-9.28T648.6,552.41q-10.29-17.77-10.29-42.63,0-36.94,20.65-59.65T712,427.43q29.3,0,50.23,21.09T783.22,515.76Zm-97.75-26.53h53.9q-2.1-31.89-25.67-31.9Q688.47,457.33,685.47,489.23Z" transform="translate(188.32 -280.6)"/><path class="cls-8" d="M937.11,527.42q-2.57,27.45-21.25,44.39t-48.28,17q-32.13,0-52.33-21.7t-20.2-58q0-36.34,20.65-59t55.19-22.62q27.78,0,46,17t20.2,42.64l-41.75,2.45q-2.1-27.92-23.72-27.91-26.58,0-26.58,44.47,0,29.6,7.43,37.57a23.82,23.82,0,0,0,18.1,8q20.71,0,24.77-26.84Z" transform="translate(188.32 -280.6)"/><path class="cls-8" d="M996.84,376.21v75.5q12.31-24.27,41-24.28,15.32,0,26.2,6.82a37.47,37.47,0,0,1,15.32,17.56q4.42,10.74,4.43,31.44V585.54H1039V498.17q0-15.66-1.2-21.5a17.73,17.73,0,0,0-5.46-9.75,15.25,15.25,0,0,0-10.7-3.91q-8.38,0-16.61,6.68t-8.23,28.48v87.37H953.45V376.21Z" transform="translate(188.32 -280.6)"/><path class="cls-8" d="M1244.88,585.54h-44.75V498.59q0-15.79-1.2-21.63a17.57,17.57,0,0,0-5.85-9.89,17.23,17.23,0,0,0-11.72-4.06q-23.56,0-23.57,35.58v86.95H1113V430.65h41.59v26.22q10.36-18.71,20.43-24.07a45.49,45.49,0,0,1,21.77-5.37q21.63,0,34.84,11.89T1244.88,486Z" transform="translate(188.32 -280.6)"/><path class="cls-8" d="M1337,427.43q34.65,0,54.08,23.16t19.42,58q0,34.37-20.17,57.28t-53.63,22.93q-32.4,0-51.83-22.7t-19.42-58.27q0-24.69,8.77-41.94A74,74,0,0,1,1298.28,438Q1313.58,427.43,1337,427.43Zm1.2,29.9q-12.72,0-19.17,10.05t-6.43,39.95q0,27.45,6.14,39.41t19.16,12q11.38,0,18.41-10.2t7-38.87q0-30.51-6.21-41.41T1338.18,457.33Z" transform="translate(188.32 -280.6)"/><path class="cls-8" d="M1588,422.22l-40.84,13.95q-8.24-24.84-34.91-24.84-28.46,0-28.46,18.86a17.1,17.1,0,0,0,5.33,12.73q5.31,5.22,24.06,9.06,31.33,6.45,45.89,13t24.52,21.23a56.84,56.84,0,0,1,10,32.74q0,28.37-21.38,49.06t-63.39,20.7q-31.5,0-53.63-14.65T1426,530.64l44.45-10.28q7.49,29.29,41.66,29.29,16.49,0,24.57-6.51t8.1-15.57a16.32,16.32,0,0,0-7.35-14.26q-7.35-5.05-28.34-9.51-39.13-8.3-55.79-22.63t-16.64-41.94q0-27.9,19.88-47.07T1510.42,373Q1570.72,373,1588,422.22Z" transform="translate(188.32 -280.6)"/><path class="cls-8" d="M1755.1,515.76h-97.6c-.1,2.76-.15,5.17-.15,7.21q0,16.56,8.63,25a28.53,28.53,0,0,0,20.65,8.43q22.38,0,26.88-24.38l40.54,3.07q-17,53.67-68.92,53.67-22.68,0-38.52-9.28t-26.13-27.07q-10.27-17.77-10.28-42.63,0-36.94,20.65-59.65t53.08-22.7q29.28,0,50.23,21.09T1755.1,515.76Zm-97.75-26.53h53.91q-2.12-31.89-25.68-31.9Q1660.35,457.33,1657.35,489.23Z" transform="translate(188.32 -280.6)"/><path class="cls-8" d="M1819.05,585.54h-43.4V430.65h41v28.83q9.46-32.21,32.74-32.2,3.3,0,8.11.46v45.08q-13.68,0-21.25,4.3t-12.39,15.41q-4.8,11.12-4.8,30Z" transform="translate(188.32 -280.6)"/><path class="cls-8" d="M2013,430.65l-52,154.89h-34.81l-52.12-154.89h46.52l29.24,98.15,29.92-98.15Z" transform="translate(188.32 -280.6)"/><path class="cls-8" d="M2138.23,468.07,2105.65,477q-5.71-21-29.59-21-22.51,0-22.52,14a10.71,10.71,0,0,0,4.13,8.83q4.13,3.3,21.54,5.58,26,3.51,38.45,8.1a39.65,39.65,0,0,1,19.74,15.49q7.29,10.89,7.29,26.84,0,23.93-17.8,39t-49.78,15q-58,0-69.22-45.85l37.69-5.68q4.65,20.87,33.64,20.86,11.1,0,18.77-4.08t7.66-11q0-10.75-17-12.73-46-5.79-60.44-18t-14.49-34q0-22.08,16.81-36.49t47.15-14.42q24,0,38.45,9.66T2138.23,468.07Z" transform="translate(188.32 -280.6)"/><path class="cls-4" d="M230.33,384.26v41.41H178.5V593.59H128.81V425.67H76.67V384.26Z" transform="translate(188.32 -280.6)"/><path class="cls-4" d="M395.67,430.27l-41.71,14q-8.41-24.84-35.65-24.84-29.07,0-29.07,18.86A16.94,16.94,0,0,0,294.68,451q5.43,5.22,24.58,9.06,32,6.45,46.86,13.05t25,21.24a56,56,0,0,1,10.18,32.73q0,28.37-21.83,49.06t-64.73,20.7q-32.17,0-54.78-14.65t-29.8-43.47l45.39-10.27q7.67,29.28,42.55,29.29,16.83,0,25.1-6.52t8.26-15.57a16.22,16.22,0,0,0-7.5-14.26q-7.5-5.05-28.94-9.51-40-8.3-57-22.63t-17-41.94q0-27.9,20.3-47.07T316.47,381Q378,381,395.67,430.27Z" transform="translate(188.32 -280.6)"/><path class="cls-8" d="M220.87,378.59V420H169V587.91H119.35V420H67.21v-41.4Z" transform="translate(188.32 -280.6)"/><path class="cls-8" d="M386.21,424.59l-41.71,14q-8.42-24.84-35.65-24.85-29.07,0-29.07,18.87a17,17,0,0,0,5.44,12.73q5.43,5.2,24.58,9.05,32,6.47,46.86,13t25,21.24a56,56,0,0,1,10.18,32.73q0,28.36-21.83,49.07t-64.73,20.7q-32.18,0-54.78-14.65T220.74,533l45.39-10.27Q273.8,552,308.68,552q16.83,0,25.1-6.52T342,530a16.21,16.21,0,0,0-7.5-14.26q-7.5-5.07-28.94-9.52-40-8.28-57-22.62t-17-41.94q0-27.92,20.3-47.08T307,375.37Q368.59,375.37,386.21,424.59Z" transform="translate(188.32 -280.6)"/></svg>